<svg version="1.1" id="Layer_1" xmlns="http://www.w3.org/2000/svg" xmlns:xlink="http://www.w3.org/1999/xlink" x="0px" y="0px"
	 width="100%" viewBox="0 0 512 512" enable-background="new 0 0 512 512" xml:space="preserve">
<path fill="#F30140" opacity="1.000000" stroke="none" 
	d="
M289.000000,513.000000 
	C267.979095,513.000000 246.958206,513.000000 225.634262,512.593445 
	C224.828720,511.811768 224.366409,511.187897 223.817657,511.099274 
	C216.773804,509.961823 209.717621,508.900818 202.748184,507.368347 
	C202.867767,506.251831 202.935150,505.587433 202.935211,504.923004 
	C202.940353,439.476959 202.941589,374.030945 202.930405,308.584900 
	C202.930206,307.468109 202.775482,306.351288 202.667435,304.890869 
	C136.646408,304.890869 70.903450,304.890869 5.086368,304.485138 
	C4.341027,299.971832 3.766718,295.844391 2.930157,291.770782 
	C2.722125,290.757751 1.666203,289.918915 1.000003,289.000000 
	C1.000000,267.979095 1.000000,246.958206 1.407066,225.628632 
	C2.929670,219.916122 4.045208,214.512283 5.617922,209.122452 
	C71.605064,209.136444 137.135040,209.136444 202.941025,209.136444 
	C202.941025,207.450653 202.941010,206.474136 202.941010,205.497620 
	C202.941101,140.383881 202.942856,75.270134 202.929825,10.156396 
	C202.929565,8.830874 202.757660,7.505387 203.097687,6.104493 
	C209.935837,5.017191 216.352585,4.063785 222.735794,2.922803 
	C223.578186,2.772230 224.249466,1.664459 225.000000,1.000001 
	C246.020889,1.000000 267.041779,1.000000 288.365753,1.406550 
	C289.167389,2.187906 289.625641,2.811372 290.170685,2.899817 
	C297.172424,4.035926 304.186523,5.095630 311.145935,6.630022 
	C311.094330,74.315323 311.094330,141.545288 311.094330,209.108536 
	C377.329773,209.108536 443.084595,209.108536 508.913574,209.514282 
	C509.659058,214.039368 510.234192,218.178406 511.070404,222.264008 
	C511.275421,223.265701 512.333862,224.092697 513.000000,225.000000 
	C513.000000,246.020889 513.000000,267.041779 512.595459,288.354950 
	C511.073730,294.061920 509.956573,299.476654 508.382263,304.877655 
	C442.383270,304.863953 376.841522,304.863953 311.022827,304.863953 
	C311.022827,307.346375 311.022827,309.155670 311.022827,310.964966 
	C311.022827,374.589050 311.021240,438.213104 311.030151,501.837189 
	C311.030426,503.833191 311.139069,505.829193 310.773651,507.898682 
	C303.986877,508.983673 297.613068,509.936218 291.273102,511.077026 
	C290.427460,511.229248 289.753479,512.335571 289.000000,513.000000 
z"/>
<path fill="#000000" opacity="1.000000" stroke="none" 
	d="
M202.664551,507.820435 
	C209.717621,508.900818 216.773804,509.961823 223.817657,511.099274 
	C224.366409,511.187897 224.828720,511.811768 225.165604,512.593445 
	C150.406296,513.000000 75.812599,513.000000 1.000000,513.000000 
	C1.000000,438.645905 1.000000,364.291626 1.000003,289.468658 
	C1.666203,289.918915 2.722125,290.757751 2.930157,291.770782 
	C3.766718,295.844391 4.341027,299.971832 5.014192,304.899689 
	C6.642917,312.150208 8.269692,318.580475 9.943001,325.408691 
	C13.046228,334.905457 16.102924,344.004272 19.252516,353.454132 
	C22.845531,361.205963 26.345650,368.606750 30.004007,376.331421 
	C35.779903,385.838135 41.397560,395.020966 47.159592,404.511292 
	C54.211994,413.294647 61.120022,421.770538 68.150497,430.541565 
	C76.889320,439.084930 85.000992,447.954681 94.229652,455.448914 
	C112.128654,469.984100 131.399918,482.595459 152.877731,491.315216 
	C163.603088,495.669647 174.702133,499.103638 185.868988,503.286926 
	C191.625397,505.020111 197.144974,506.420288 202.664551,507.820435 
z"/>
<path fill="#000000" opacity="1.000000" stroke="none" 
	d="
M289.468658,513.000000 
	C289.753479,512.335571 290.427460,511.229248 291.273102,511.077026 
	C297.613068,509.936218 303.986877,508.983673 311.117004,507.732208 
	C317.378143,505.979736 322.872375,504.467224 328.738983,503.007568 
	C347.157318,497.950653 364.305328,490.764740 380.771759,481.731659 
	C405.426880,468.206482 427.088074,451.016541 446.282959,430.085968 
	C453.389771,421.352570 460.185486,412.779327 467.293396,404.030304 
	C473.121796,394.572144 478.638031,385.289764 484.479187,375.858978 
	C488.155029,368.141022 491.505981,360.571442 495.025146,352.673523 
	C498.163666,343.233429 501.133972,334.121674 504.464630,324.841614 
	C506.163116,318.079285 507.501282,311.485321 508.839447,304.891357 
	C509.956573,299.476654 511.073730,294.061920 512.595459,288.823608 
	C513.000000,363.593719 513.000000,438.187408 513.000000,513.000000 
	C438.645905,513.000000 364.291626,513.000000 289.468658,513.000000 
z"/>
<path fill="#000000" opacity="1.000000" stroke="none" 
	d="
M311.197510,6.174689 
	C304.186523,5.095630 297.172424,4.035926 290.170685,2.899817 
	C289.625641,2.811372 289.167389,2.187906 288.834412,1.406550 
	C363.593719,1.000000 438.187408,1.000000 513.000000,1.000000 
	C513.000000,75.354088 513.000000,149.708389 513.000000,224.531342 
	C512.333862,224.092697 511.275421,223.265701 511.070404,222.264008 
	C510.234192,218.178406 509.659058,214.039368 508.985657,209.099747 
	C507.356781,201.849609 505.730011,195.419724 504.056732,188.591827 
	C500.957397,179.108383 497.904602,170.022964 494.784912,160.575958 
	C491.192688,152.803925 487.667297,145.393463 484.072235,137.624695 
	C478.328705,128.108780 472.654846,118.951157 466.836914,109.486198 
	C459.773224,100.669853 452.853577,92.160835 445.822327,83.360947 
	C435.065796,73.357460 424.807922,63.173306 413.684845,54.043186 
	C397.170135,40.487473 378.771118,29.748894 359.002808,21.632027 
	C349.024475,17.534922 338.593750,14.539696 328.130737,10.713247 
	C322.328461,8.978391 316.762970,7.576539 311.197510,6.174689 
z"/>
<path fill="#000000" opacity="1.000000" stroke="none" 
	d="
M5.160746,209.108459 
	C4.045208,214.512283 2.929670,219.916122 1.407066,225.159973 
	C1.000000,150.406296 1.000000,75.812576 1.000000,1.000000 
	C75.354088,1.000000 149.708389,1.000000 224.531342,1.000001 
	C224.249466,1.664459 223.578186,2.772230 222.735794,2.922803 
	C216.352585,4.063785 209.935837,5.017191 202.798309,6.325091 
	C196.587128,8.096084 191.107178,9.571087 185.251190,10.989197 
	C172.590256,15.453037 159.935944,19.174700 148.092514,24.650320 
	C117.458862,38.813297 90.730507,58.544765 67.766731,83.840652 
	C60.650341,92.618675 53.832436,101.207909 46.700695,109.970245 
	C40.877483,119.422905 35.368107,128.702469 29.532227,138.129517 
	C25.857010,145.817078 22.508299,153.357162 19.002432,161.239777 
	C15.862256,170.717865 12.879235,179.853409 9.535765,189.157303 
	C7.837124,195.919907 6.498935,202.514191 5.160746,209.108459 
z"/>
<path fill="#FFFEFE" opacity="1.000000" stroke="none" 
	d="
M5.617921,209.122452 
	C6.498935,202.514191 7.837124,195.919907 9.787416,189.517258 
	C27.381723,189.708878 44.363930,189.708878 61.346134,189.708878 
	C61.412804,189.412247 61.479473,189.115616 61.546139,188.818970 
	C47.417286,179.511734 33.288437,170.204498 19.159586,160.897247 
	C22.508299,153.357162 25.857010,145.817078 29.702990,138.433655 
	C54.662868,154.932556 79.096886,171.318085 103.640060,187.538437 
	C105.698059,188.898544 108.483459,189.786667 110.941986,189.811798 
	C129.272751,189.999298 147.606293,189.919006 165.938965,189.901382 
	C167.144760,189.900223 168.350372,189.723419 170.733978,189.535400 
	C161.919220,183.847763 154.125732,178.813522 146.326736,173.787842 
	C113.223557,152.456223 80.118752,131.127151 47.014534,109.797150 
	C53.832436,101.207909 60.650341,92.618675 68.110962,83.924820 
	C107.903976,109.972221 147.054276,136.124237 186.500244,162.473770 
	C186.756989,161.398636 186.954239,160.957947 186.954407,160.517197 
	C186.972412,112.034309 186.986557,63.551403 186.923111,15.068604 
	C186.921356,13.727203 186.078094,12.386906 185.627243,11.046091 
	C191.107178,9.571087 196.587128,8.096084 202.366455,6.400482 
	C202.757660,7.505387 202.929565,8.830874 202.929825,10.156396 
	C202.942856,75.270134 202.941101,140.383881 202.941010,205.497620 
	C202.941010,206.474136 202.941025,207.450653 202.941025,209.136444 
	C137.135040,209.136444 71.605064,209.136444 5.617921,209.122452 
z"/>
<path fill="#FFFEFE" opacity="1.000000" stroke="none" 
	d="
M311.145935,6.630020 
	C316.762970,7.576539 322.328461,8.978391 327.863617,11.054353 
	C327.561951,13.297087 327.054901,14.865500 327.053497,16.434370 
	C327.011444,63.549255 327.017120,110.664192 327.030090,157.779114 
	C327.030457,159.172943 327.189819,160.566727 327.307922,162.498047 
	C329.230347,161.313004 330.634705,160.508957 331.976227,159.611038 
	C351.983582,146.219284 371.959595,132.780609 391.990479,119.424171 
	C409.941376,107.454674 427.950500,95.572517 445.933929,83.651825 
	C452.853577,92.160835 459.773224,100.669853 466.512756,109.623367 
	C425.641693,136.381577 384.950775,162.695312 344.259827,189.009033 
	C364.135193,189.915604 383.464539,190.005829 402.790985,189.809280 
	C405.409790,189.782669 408.350281,188.844666 410.567261,187.428925 
	C420.648682,180.991104 430.549805,174.268814 440.468384,167.578552 
	C455.047424,157.744751 469.586060,147.851135 484.141907,137.983002 
	C487.667297,145.393463 491.192688,152.803925 494.462372,160.673004 
	C480.303833,170.444183 466.401031,179.756760 451.263153,189.896622 
	C469.426453,189.896622 485.966705,189.905075 502.506805,189.858505 
	C503.039764,189.857010 503.571136,189.292114 504.103241,188.989838 
	C505.730011,195.419724 507.356781,201.849609 508.911499,208.694000 
	C443.084595,209.108536 377.329773,209.108536 311.094330,209.108536 
	C311.094330,141.545288 311.094330,74.315323 311.145935,6.630020 
z"/>
<path fill="#FFFEFE" opacity="1.000000" stroke="none" 
	d="
M508.382263,304.877655 
	C507.501282,311.485321 506.163116,318.079285 504.213135,324.481415 
	C486.640533,324.289581 469.679749,324.289581 451.344452,324.289581 
	C466.660767,334.396271 480.758850,343.699097 494.856934,353.001892 
	C491.505981,360.571442 488.155029,368.141022 484.321899,375.549438 
	C459.087250,358.877289 434.358978,342.329559 409.531525,325.931976 
	C407.749390,324.755005 405.246521,324.179077 403.072510,324.162842 
	C384.745239,324.025787 366.416504,324.078979 348.088226,324.096649 
	C346.896332,324.097809 345.704620,324.277832 343.319275,324.471588 
	C385.232819,351.496552 426.106995,377.851318 466.981201,404.206085 
	C460.185486,412.779327 453.389771,421.352570 445.942200,429.992310 
	C406.056458,403.855530 366.822571,377.652252 327.019501,351.068848 
	C327.019501,401.041473 327.008789,449.986481 327.075958,498.931427 
	C327.077789,500.273132 327.917572,501.613617 328.366608,502.954712 
	C322.872375,504.467224 317.378143,505.979736 311.540527,507.658722 
	C311.139069,505.829193 311.030426,503.833191 311.030151,501.837189 
	C311.021240,438.213104 311.022827,374.589050 311.022827,310.964966 
	C311.022827,309.155670 311.022827,307.346375 311.022827,304.863953 
	C376.841522,304.863953 442.383270,304.863953 508.382263,304.877655 
z"/>
<path fill="#FFFEFE" opacity="1.000000" stroke="none" 
	d="
M202.748184,507.368347 
	C197.144974,506.420288 191.625397,505.020111 186.135788,502.945618 
	C186.437241,500.702087 186.944565,499.133087 186.945969,497.563660 
	C186.988037,450.429382 186.982513,403.295105 186.968567,356.160797 
	C186.968155,354.769165 186.796555,353.377625 186.670746,351.470398 
	C184.762512,352.656738 183.362411,353.471436 182.018951,354.370758 
	C157.869461,370.535980 133.751678,386.748718 109.573105,402.870270 
	C95.774727,412.070648 81.879608,421.125885 68.028046,430.246460 
	C61.120022,421.770538 54.211994,413.294647 47.490498,404.386536 
	C88.451241,377.619415 129.225449,351.284515 170.296097,324.758179 
	C169.464417,324.342133 169.212006,324.105408 168.959351,324.105164 
	C149.156509,324.086639 129.353302,324.035339 109.551384,324.171021 
	C107.734215,324.183472 105.717941,325.081879 104.145966,326.107910 
	C93.446991,333.091400 82.813232,340.176178 72.214485,347.311493 
	C58.064949,356.837311 43.966286,366.438629 29.845768,376.007538 
	C26.345650,368.606750 22.845531,361.205963 19.585709,353.376038 
	C33.750721,343.623566 47.675438,334.300262 61.600155,324.976959 
	C44.618919,324.104126 28.057287,324.095673 11.495802,324.142273 
	C10.961880,324.143768 10.429540,324.708496 9.896465,325.010712 
	C8.269692,318.580475 6.642917,312.150208 5.088316,305.305420 
	C70.903450,304.890869 136.646408,304.890869 202.667435,304.890869 
	C202.775482,306.351288 202.930206,307.468109 202.930405,308.584900 
	C202.941589,374.030945 202.940353,439.476959 202.935211,504.923004 
	C202.935150,505.587433 202.867767,506.251831 202.748184,507.368347 
z"/>
<path fill="#14439E" opacity="1.000000" stroke="none" 
	d="
M68.150490,430.541565 
	C81.879608,421.125885 95.774727,412.070648 109.573105,402.870270 
	C133.751678,386.748718 157.869461,370.535980 182.018951,354.370758 
	C183.362411,353.471436 184.762512,352.656738 186.670746,351.470398 
	C186.796555,353.377625 186.968155,354.769165 186.968567,356.160797 
	C186.982513,403.295105 186.988037,450.429382 186.945969,497.563660 
	C186.944565,499.133087 186.437241,500.702087 185.898941,502.612610 
	C174.702133,499.103638 163.603088,495.669647 152.877731,491.315216 
	C131.399918,482.595459 112.128654,469.984100 94.229652,455.448914 
	C85.000992,447.954681 76.889320,439.084930 68.150490,430.541565 
z"/>
<path fill="#F30242" opacity="1.000000" stroke="none" 
	d="
M30.004009,376.331421 
	C43.966286,366.438629 58.064949,356.837311 72.214485,347.311493 
	C82.813232,340.176178 93.446991,333.091400 104.145966,326.107910 
	C105.717941,325.081879 107.734215,324.183472 109.551384,324.171021 
	C129.353302,324.035339 149.156509,324.086639 168.959351,324.105164 
	C169.212006,324.105408 169.464417,324.342133 170.296097,324.758179 
	C129.225449,351.284515 88.451241,377.619415 47.346123,404.079041 
	C41.397560,395.020966 35.779903,385.838135 30.004009,376.331421 
z"/>
<path fill="#17469F" opacity="1.000000" stroke="none" 
	d="
M9.942997,325.408691 
	C10.429540,324.708496 10.961880,324.143768 11.495802,324.142273 
	C28.057287,324.095673 44.618919,324.104126 61.600155,324.976959 
	C47.675438,334.300262 33.750721,343.623566 19.492813,353.024963 
	C16.102924,344.004272 13.046228,334.905457 9.942997,325.408691 
z"/>
<path fill="#14439E" opacity="1.000000" stroke="none" 
	d="
M328.738983,503.007568 
	C327.917572,501.613617 327.077789,500.273132 327.075958,498.931427 
	C327.008789,449.986481 327.019501,401.041473 327.019501,351.068848 
	C366.822571,377.652252 406.056458,403.855530 445.631134,430.152466 
	C427.088074,451.016541 405.426880,468.206482 380.771759,481.731659 
	C364.305328,490.764740 347.157318,497.950653 328.738983,503.007568 
z"/>
<path fill="#F30241" opacity="1.000000" stroke="none" 
	d="
M467.293365,404.030304 
	C426.106995,377.851318 385.232819,351.496552 343.319275,324.471588 
	C345.704620,324.277832 346.896332,324.097809 348.088226,324.096649 
	C366.416504,324.078979 384.745239,324.025787 403.072510,324.162842 
	C405.246521,324.179077 407.749390,324.755005 409.531525,325.931976 
	C434.358978,342.329559 459.087250,358.877289 483.997009,375.697876 
	C478.638031,385.289764 473.121796,394.572144 467.293365,404.030304 
z"/>
<path fill="#1846A0" opacity="1.000000" stroke="none" 
	d="
M495.025146,352.673523 
	C480.758850,343.699097 466.660767,334.396271 451.344452,324.289581 
	C469.679749,324.289581 486.640533,324.289581 503.852783,324.649780 
	C501.133972,334.121674 498.163666,343.233429 495.025146,352.673523 
z"/>
<path fill="#14439E" opacity="1.000000" stroke="none" 
	d="
M445.822327,83.360954 
	C427.950500,95.572517 409.941376,107.454674 391.990479,119.424171 
	C371.959595,132.780609 351.983582,146.219284 331.976227,159.611038 
	C330.634705,160.508957 329.230347,161.313004 327.307922,162.498047 
	C327.189819,160.566727 327.030457,159.172943 327.030090,157.779114 
	C327.017120,110.664192 327.011444,63.549255 327.053497,16.434370 
	C327.054901,14.865500 327.561951,13.297087 328.100433,11.387356 
	C338.593750,14.539696 349.024475,17.534922 359.002808,21.632027 
	C378.771118,29.748894 397.170135,40.487473 413.684845,54.043186 
	C424.807922,63.173306 435.065796,73.357460 445.822327,83.360954 
z"/>
<path fill="#F30242" opacity="1.000000" stroke="none" 
	d="
M484.072266,137.624695 
	C469.586060,147.851135 455.047424,157.744751 440.468384,167.578552 
	C430.549805,174.268814 420.648682,180.991104 410.567261,187.428925 
	C408.350281,188.844666 405.409790,189.782669 402.790985,189.809280 
	C383.464539,190.005829 364.135193,189.915604 344.259827,189.009033 
	C384.950775,162.695312 425.641693,136.381577 466.656799,109.930695 
	C472.654846,118.951157 478.328705,128.108780 484.072266,137.624695 
z"/>
<path fill="#17469F" opacity="1.000000" stroke="none" 
	d="
M504.056732,188.591827 
	C503.571136,189.292114 503.039764,189.857010 502.506805,189.858505 
	C485.966705,189.905075 469.426453,189.896622 451.263153,189.896622 
	C466.401031,179.756760 480.303833,170.444183 494.529236,161.034576 
	C497.904602,170.022964 500.957397,179.108383 504.056732,188.591827 
z"/>
<path fill="#14439E" opacity="1.000000" stroke="none" 
	d="
M185.251190,10.989199 
	C186.078094,12.386906 186.921356,13.727203 186.923111,15.068604 
	C186.986557,63.551403 186.972412,112.034309 186.954407,160.517197 
	C186.954239,160.957947 186.756989,161.398636 186.500244,162.473770 
	C147.054276,136.124237 107.903976,109.972221 68.409447,83.736038 
	C90.730507,58.544765 117.458862,38.813297 148.092514,24.650320 
	C159.935944,19.174700 172.590256,15.453037 185.251190,10.989199 
z"/>
<path fill="#F30241" opacity="1.000000" stroke="none" 
	d="
M46.700695,109.970245 
	C80.118752,131.127151 113.223557,152.456223 146.326736,173.787842 
	C154.125732,178.813522 161.919220,183.847763 170.733978,189.535400 
	C168.350372,189.723419 167.144760,189.900223 165.938965,189.901382 
	C147.606293,189.919006 129.272751,189.999298 110.941986,189.811798 
	C108.483459,189.786667 105.698059,188.898544 103.640060,187.538437 
	C79.096886,171.318085 54.662868,154.932556 30.029495,138.286163 
	C35.368107,128.702469 40.877483,119.422905 46.700695,109.970245 
z"/>
<path fill="#17469F" opacity="1.000000" stroke="none" 
	d="
M19.002430,161.239777 
	C33.288437,170.204498 47.417286,179.511734 61.546139,188.818970 
	C61.479473,189.115616 61.412804,189.412247 61.346134,189.708878 
	C44.363930,189.708878 27.381723,189.708878 10.147867,189.348923 
	C12.879235,179.853409 15.862256,170.717865 19.002430,161.239777 
z"/>
</svg>