<svg version="1.1" id="Layer_1" xmlns="http://www.w3.org/2000/svg" xmlns:xlink="http://www.w3.org/1999/xlink" x="0px" y="0px"
	 width="100%" viewBox="0 0 512 512" enable-background="new 0 0 512 512" xml:space="preserve">
<path fill="#F30040" opacity="1.000000" stroke="none" 
	d="
M513.000000,225.000000 
	C513.000000,246.020889 513.000000,267.041779 512.600037,288.352417 
	C511.800995,289.649200 511.200989,290.624603 511.036682,291.668579 
	C510.199188,296.989227 510.021515,302.477875 508.605865,307.631104 
	C504.613312,322.164154 500.128571,336.561951 495.618469,351.025696 
	C495.399170,351.038330 494.986389,351.188934 494.522034,351.129333 
	C336.539612,351.060272 179.021576,351.050598 21.503542,351.047485 
	C20.673649,351.047455 19.843756,351.139801 18.807369,351.112732 
	C18.600878,351.036469 18.161953,351.013153 18.085506,350.635193 
	C10.424276,331.080933 5.204937,311.309418 2.908801,290.784363 
	C2.835217,290.126617 1.661088,289.592010 1.000001,289.000000 
	C1.000000,267.979095 1.000000,246.958206 1.398350,225.654785 
	C2.175231,224.863098 2.840137,224.380814 2.890809,223.840881 
	C4.574808,205.896332 9.033915,188.589447 15.060586,171.675125 
	C16.183790,168.522766 18.326544,165.733658 20.462139,162.851715 
	C176.849548,162.938156 332.773590,162.949783 488.697632,162.961441 
	C490.030334,162.961548 491.516388,162.586777 492.658356,163.053619 
	C494.220917,163.692444 496.294525,164.671158 496.818359,166.020721 
	C503.918945,184.314087 508.773346,203.193985 511.077026,222.713181 
	C511.174561,223.539597 512.334839,224.240585 513.000000,225.000000 
z"/>
<path fill="#020202" opacity="1.000000" stroke="none" 
	d="
M513.000000,224.531342 
	C512.334839,224.240585 511.174561,223.539597 511.077026,222.713181 
	C508.773346,203.193985 503.918945,184.314087 496.818359,166.020721 
	C496.294525,164.671158 494.220917,163.692444 492.658356,163.053619 
	C491.516388,162.586777 490.030334,162.961548 488.697632,162.961441 
	C332.773590,162.949783 176.849548,162.938156 20.462246,162.447617 
	C20.536247,159.572098 20.606110,156.936554 21.688725,154.818710 
	C27.511786,143.427521 33.136570,131.897110 39.673134,120.916794 
	C51.381790,101.248253 65.913231,83.617104 83.095154,68.601707 
	C95.799583,57.499218 109.514771,47.363625 123.648155,38.126064 
	C151.748856,19.759489 182.957962,9.148371 216.043564,3.848628 
	C219.102646,3.358616 222.017944,1.970889 225.000000,1.000000 
	C320.917938,1.000000 416.835846,1.000000 513.000000,1.000000 
	C513.000000,75.354050 513.000000,149.708359 513.000000,224.531342 
z"/>
<path fill="#FFDD00" opacity="1.000000" stroke="none" 
	d="
M19.013863,351.188995 
	C19.843756,351.139801 20.673649,351.047455 21.503542,351.047485 
	C179.021576,351.050598 336.539612,351.060272 494.532043,351.359192 
	C495.006470,351.648682 495.043976,352.109131 495.017212,352.485474 
	C488.301086,366.098785 482.302307,379.743988 474.771576,392.483582 
	C461.145630,415.534302 443.198303,435.055603 422.989624,452.596680 
	C409.063660,464.684387 393.913055,474.986603 377.708740,483.557587 
	C350.492737,497.953003 321.668549,507.708374 290.879852,511.081024 
	C290.191406,511.156464 289.623901,512.335632 289.000000,513.000000 
	C267.979095,513.000000 246.958206,513.000000 225.807449,512.667114 
	C225.010071,511.900513 224.390381,511.205688 223.667709,511.073395 
	C216.010406,509.672028 208.316605,508.465515 200.671249,507.004425 
	C174.522766,502.007355 150.210770,492.004822 127.395386,478.609528 
	C106.678505,466.446228 87.542122,452.000488 71.515671,433.905243 
	C63.066589,424.365540 54.653164,414.713531 47.147751,404.437317 
	C35.390114,388.339050 25.645643,371.010162 18.975677,351.879578 
	C18.994501,351.649750 19.013863,351.188995 19.013863,351.188995 
z"/>
<path fill="#000000" opacity="1.000000" stroke="none" 
	d="
M224.531342,1.000000 
	C222.017944,1.970889 219.102646,3.358616 216.043564,3.848628 
	C182.957962,9.148371 151.748856,19.759489 123.648155,38.126064 
	C109.514771,47.363625 95.799583,57.499218 83.095154,68.601707 
	C65.913231,83.617104 51.381790,101.248253 39.673134,120.916794 
	C33.136570,131.897110 27.511786,143.427521 21.688725,154.818710 
	C20.606110,156.936554 20.536247,159.572098 19.998877,162.372818 
	C18.326544,165.733658 16.183790,168.522766 15.060586,171.675125 
	C9.033915,188.589447 4.574808,205.896332 2.890809,223.840881 
	C2.840137,224.380814 2.175231,224.863098 1.398350,225.186127 
	C1.000000,150.406296 1.000000,75.812576 1.000000,1.000000 
	C75.354088,1.000000 149.708389,1.000000 224.531342,1.000000 
z"/>
<path fill="#000000" opacity="1.000000" stroke="none" 
	d="
M289.468658,513.000000 
	C289.623901,512.335632 290.191406,511.156464 290.879852,511.081024 
	C321.668549,507.708374 350.492737,497.953003 377.708740,483.557587 
	C393.913055,474.986603 409.063660,464.684387 422.989624,452.596680 
	C443.198303,435.055603 461.145630,415.534302 474.771576,392.483582 
	C482.302307,379.743988 488.301086,366.098785 495.268250,352.398315 
	C495.643311,351.627563 495.740601,351.320312 495.837830,351.013062 
	C500.128571,336.561951 504.613312,322.164154 508.605865,307.631104 
	C510.021515,302.477875 510.199188,296.989227 511.036682,291.668579 
	C511.200989,290.624603 511.800995,289.649200 512.600037,288.821075 
	C513.000000,363.593719 513.000000,438.187408 513.000000,513.000000 
	C438.645905,513.000000 364.291626,513.000000 289.468658,513.000000 
z"/>
<path fill="#000000" opacity="1.000000" stroke="none" 
	d="
M18.956856,352.109375 
	C25.645643,371.010162 35.390114,388.339050 47.147751,404.437317 
	C54.653164,414.713531 63.066589,424.365540 71.515671,433.905243 
	C87.542122,452.000488 106.678505,466.446228 127.395386,478.609528 
	C150.210770,492.004822 174.522766,502.007355 200.671249,507.004425 
	C208.316605,508.465515 216.010406,509.672028 223.667709,511.073395 
	C224.390381,511.205688 225.010071,511.900513 225.338791,512.667114 
	C150.406296,513.000000 75.812599,513.000000 1.000000,513.000000 
	C1.000000,438.645905 1.000000,364.291626 1.000001,289.468658 
	C1.661088,289.592010 2.835217,290.126617 2.908801,290.784363 
	C5.204937,311.309418 10.424276,331.080933 18.051788,350.900635 
	C18.381964,351.732513 18.669411,351.920929 18.956856,352.109375 
z"/>
<path fill="#FECD04" opacity="1.000000" stroke="none" 
	d="
M18.975679,351.879578 
	C18.669411,351.920929 18.381964,351.732513 18.128235,351.278625 
	C18.161953,351.013153 18.600878,351.036469 18.807369,351.112732 
	C19.013863,351.188995 18.994501,351.649750 18.975679,351.879578 
z"/>
<path fill="#FECD04" opacity="1.000000" stroke="none" 
	d="
M495.618530,351.025696 
	C495.740601,351.320312 495.643311,351.627563 495.295013,352.021973 
	C495.043976,352.109131 495.006470,351.648682 494.996429,351.418823 
	C494.986389,351.188934 495.399170,351.038330 495.618530,351.025696 
z"/>
</svg>